<?xml version="1.0" encoding="UTF-8"?>
<svg width="428px" height="109px" viewBox="0 0 428 109" version="1.1" xmlns="http://www.w3.org/2000/svg" xmlns:xlink="http://www.w3.org/1999/xlink">
    <title>Group 2</title>
    <g id="Page-1" stroke="none" stroke-width="1" fill="none" fill-rule="evenodd">
        <g id="license_checker" transform="translate(-194.000000, -207.000000)">
            <g id="Group-2" transform="translate(194.800000, 207.000000)">
                <path d="M21.6,94.48 L21.6,87.76 L17.2,87.76 C15.6533333,87.76 14.68,87.2533333 14.28,86.24 C13.88,85.2266667 13.68,84.1333333 13.68,82.96 L13.68,82.96 L13.68,68.4 C13.68,66.5333333 13.3866667,65.0133333 12.8,63.84 C12.2133333,62.6666667 11.52,61.7333333 10.72,61.04 C9.92,60.3466667 9.06666667,59.8533333 8.16,59.56 C7.25333333,59.2666667 6.48,59.0933333 5.84,59.04 L5.84,59.04 L5.84,58.88 C6.48,58.8266667 7.25333333,58.6133333 8.16,58.24 C9.06666667,57.8666667 9.92,57.3333333 10.72,56.64 C11.52,55.9466667 12.2133333,55.0533333 12.8,53.96 C13.3866667,52.8666667 13.68,51.5466667 13.68,50 L13.68,50 L13.68,34.96 C13.68,33.7866667 13.88,32.6933333 14.28,31.68 C14.68,30.6666667 15.6533333,30.16 17.2,30.16 L17.2,30.16 L21.6,30.16 L21.6,23.44 L15.76,23.44 C14.4266667,23.44 13.1466667,23.6533333 11.92,24.08 C10.6933333,24.5066667 9.6,25.16 8.64,26.04 C7.68,26.92 6.92,28.0133333 6.36,29.32 C5.8,30.6266667 5.52,32.1866667 5.52,34 L5.52,34 L5.52,49.84 C5.52,50.96 5.33333333,51.8933333 4.96,52.64 C4.58666667,53.3866667 4.13333333,53.96 3.6,54.36 C3.06666667,54.76 2.46666667,55.04 1.8,55.2 C1.13333333,55.36 0.533333333,55.44 0,55.44 L0,55.44 L0,62.48 C0.533333333,62.48 1.13333333,62.56 1.8,62.72 C2.46666667,62.88 3.06666667,63.1866667 3.6,63.64 C4.13333333,64.0933333 4.58666667,64.72 4.96,65.52 C5.33333333,66.32 5.52,67.36 5.52,68.64 L5.52,68.64 L5.52,83.92 C5.52,85.7333333 5.8,87.2933333 6.36,88.6 C6.92,89.9066667 7.68,91 8.64,91.88 C9.6,92.76 10.6933333,93.4133333 11.92,93.84 C13.1466667,94.2666667 14.4266667,94.48 15.76,94.48 L15.76,94.48 L21.6,94.48 Z M161.12,82 L161.12,21.52 L151.52,21.52 L151.52,82 L161.12,82 Z M177.68,36.32 C179.44,36.32 180.92,35.7733333 182.12,34.68 C183.32,33.5866667 183.92,32.2133333 183.92,30.56 C183.92,28.9066667 183.32,27.5333333 182.12,26.44 C180.92,25.3466667 179.44,24.8 177.68,24.8 C175.92,24.8 174.466667,25.3733333 173.32,26.52 C172.173333,27.6666667 171.6,29.0133333 171.6,30.56 C171.6,32.1066667 172.173333,33.4533333 173.32,34.6 C174.466667,35.7466667 175.92,36.32 177.68,36.32 Z M182.56,82 L182.56,43.6 L172.96,43.6 L172.96,82 L182.56,82 Z M212.8,83.12 C215.68,83.12 218.36,82.6533333 220.84,81.72 C223.32,80.7866667 225.36,79.4666667 226.96,77.76 L226.96,77.76 L220.96,71.68 C220.053333,72.8 218.853333,73.6533333 217.36,74.24 C215.866667,74.8266667 214.373333,75.12 212.88,75.12 C211.066667,75.12 209.48,74.76 208.12,74.04 C206.76,73.32 205.626667,72.3733333 204.72,71.2 C203.813333,70.0266667 203.133333,68.7066667 202.68,67.24 C202.226667,65.7733333 202,64.2933333 202,62.8 C202,61.3066667 202.213333,59.8266667 202.64,58.36 C203.066667,56.8933333 203.72,55.5733333 204.6,54.4 C205.48,53.2266667 206.586667,52.28 207.92,51.56 C209.253333,50.84 210.8,50.48 212.56,50.48 C214.106667,50.48 215.626667,50.84 217.12,51.56 C218.613333,52.28 219.733333,53.1733333 220.48,54.24 L220.48,54.24 L227.04,48.48 C225.493333,46.6133333 223.4,45.1466667 220.76,44.08 C218.12,43.0133333 215.386667,42.48 212.56,42.48 C209.733333,42.48 207.08,42.96 204.6,43.92 C202.12,44.88 199.946667,46.24 198.08,48 C196.213333,49.76 194.733333,51.8933333 193.64,54.4 C192.546667,56.9066667 192,59.7066667 192,62.8 C192,66 192.546667,68.8533333 193.64,71.36 C194.733333,73.8666667 196.226667,76 198.12,77.76 C200.013333,79.52 202.226667,80.8533333 204.76,81.76 C207.293333,82.6666667 209.973333,83.12 212.8,83.12 Z M251.68,83.12 C258.88,83.12 264.373333,80.56 268.16,75.44 L268.16,75.44 L261.76,70.32 C260.693333,71.8666667 259.333333,73.08 257.68,73.96 C256.026667,74.84 254,75.28 251.6,75.28 C250.213333,75.28 248.88,75.04 247.6,74.56 C246.32,74.08 245.173333,73.4266667 244.16,72.6 C243.146667,71.7733333 242.333333,70.7866667 241.72,69.64 C241.106667,68.4933333 240.746667,67.2266667 240.64,65.84 L240.64,65.84 L269.84,65.84 C269.893333,65.4133333 269.92,64.9866667 269.92,64.56 L269.92,64.56 L269.92,63.28 C269.92,59.8133333 269.453333,56.7866667 268.52,54.2 C267.586667,51.6133333 266.293333,49.4533333 264.64,47.72 C262.986667,45.9866667 261.026667,44.68 258.76,43.8 C256.493333,42.92 254.026667,42.48 251.36,42.48 C248.48,42.48 245.8,42.9733333 243.32,43.96 C240.84,44.9466667 238.693333,46.3333333 236.88,48.12 C235.066667,49.9066667 233.64,52.0666667 232.6,54.6 C231.56,57.1333333 231.04,59.9466667 231.04,63.04 C231.04,66.1866667 231.56,69 232.6,71.48 C233.64,73.96 235.08,76.0533333 236.92,77.76 C238.76,79.4666667 240.933333,80.7866667 243.44,81.72 C245.946667,82.6533333 248.693333,83.12 251.68,83.12 Z M260.32,58.96 L240.64,58.96 C240.853333,56.24 241.96,54.0133333 243.96,52.28 C245.96,50.5466667 248.4,49.68 251.28,49.68 C252.826667,49.68 254.173333,49.9333333 255.32,50.44 C256.466667,50.9466667 257.413333,51.6266667 258.16,52.48 C258.906667,53.3333333 259.453333,54.32 259.8,55.44 C260.146667,56.56 260.32,57.7333333 260.32,58.96 L260.32,58.96 Z M288.8,82 L288.8,60.88 C288.8,59.6 288.986667,58.3333333 289.36,57.08 C289.733333,55.8266667 290.28,54.72 291,53.76 C291.72,52.8 292.64,52.0133333 293.76,51.4 C294.88,50.7866667 296.213333,50.48 297.76,50.48 C299.306667,50.48 300.546667,50.8 301.48,51.44 C302.413333,52.08 303.146667,52.8933333 303.68,53.88 C304.213333,54.8666667 304.56,55.9733333 304.72,57.2 C304.88,58.4266667 304.96,59.6 304.96,60.72 L304.96,60.72 L304.96,82 L314.56,82 L314.56,58 C314.56,56.0266667 314.293333,54.1066667 313.76,52.24 C313.226667,50.3733333 312.386667,48.72 311.24,47.28 C310.093333,45.84 308.626667,44.68 306.84,43.8 C305.053333,42.92 302.906667,42.48 300.4,42.48 C297.52,42.48 295.026667,43.2133333 292.92,44.68 C290.813333,46.1466667 289.333333,47.84 288.48,49.76 L288.48,49.76 L288.32,49.76 L288.32,43.6 L279.2,43.6 L279.2,82 L288.8,82 Z M336.96,83.12 C339.04,83.12 341.053333,82.8933333 343,82.44 C344.946667,81.9866667 346.653333,81.2533333 348.12,80.24 C349.586667,79.2266667 350.76,77.9066667 351.64,76.28 C352.52,74.6533333 352.96,72.6666667 352.96,70.32 C352.96,68.4533333 352.586667,66.8666667 351.84,65.56 C351.093333,64.2533333 350.12,63.16 348.92,62.28 C347.72,61.4 346.386667,60.6933333 344.92,60.16 C343.453333,59.6266667 342,59.2 340.56,58.88 C337.84,58.24 335.773333,57.6133333 334.36,57 C332.946667,56.3866667 332.24,55.3333333 332.24,53.84 C332.24,52.3466667 332.88,51.28 334.16,50.64 C335.44,50 336.853333,49.68 338.4,49.68 C340.16,49.68 341.786667,50.0933333 343.28,50.92 C344.773333,51.7466667 345.946667,52.72 346.8,53.84 L346.8,53.84 L353.04,48.32 C351.493333,46.3466667 349.4,44.88 346.76,43.92 C344.12,42.96 341.413333,42.48 338.64,42.48 C336.72,42.48 334.853333,42.72 333.04,43.2 C331.226667,43.68 329.6,44.4133333 328.16,45.4 C326.72,46.3866667 325.56,47.6533333 324.68,49.2 C323.8,50.7466667 323.36,52.5866667 323.36,54.72 C323.36,56.5333333 323.68,58.0533333 324.32,59.28 C324.96,60.5066667 325.813333,61.5333333 326.88,62.36 C327.946667,63.1866667 329.16,63.8533333 330.52,64.36 C331.88,64.8666667 333.28,65.28 334.72,65.6 C337.653333,66.2933333 339.853333,66.9866667 341.32,67.68 C342.786667,68.3733333 343.52,69.52 343.52,71.12 C343.52,71.9733333 343.333333,72.6933333 342.96,73.28 C342.586667,73.8666667 342.093333,74.3333333 341.48,74.68 C340.866667,75.0266667 340.2,75.28 339.48,75.44 C338.76,75.6 338.053333,75.68 337.36,75.68 C335.28,75.68 333.386667,75.2266667 331.68,74.32 C329.973333,73.4133333 328.586667,72.2666667 327.52,70.88 L327.52,70.88 L321.2,76.8 C323.066667,78.8266667 325.413333,80.3866667 328.24,81.48 C331.066667,82.5733333 333.973333,83.12 336.96,83.12 Z M379.68,83.12 C386.88,83.12 392.373333,80.56 396.16,75.44 L396.16,75.44 L389.76,70.32 C388.693333,71.8666667 387.333333,73.08 385.68,73.96 C384.026667,74.84 382,75.28 379.6,75.28 C378.213333,75.28 376.88,75.04 375.6,74.56 C374.32,74.08 373.173333,73.4266667 372.16,72.6 C371.146667,71.7733333 370.333333,70.7866667 369.72,69.64 C369.106667,68.4933333 368.746667,67.2266667 368.64,65.84 L368.64,65.84 L397.84,65.84 C397.893333,65.4133333 397.92,64.9866667 397.92,64.56 L397.92,64.56 L397.92,63.28 C397.92,59.8133333 397.453333,56.7866667 396.52,54.2 C395.586667,51.6133333 394.293333,49.4533333 392.64,47.72 C390.986667,45.9866667 389.026667,44.68 386.76,43.8 C384.493333,42.92 382.026667,42.48 379.36,42.48 C376.48,42.48 373.8,42.9733333 371.32,43.96 C368.84,44.9466667 366.693333,46.3333333 364.88,48.12 C363.066667,49.9066667 361.64,52.0666667 360.6,54.6 C359.56,57.1333333 359.04,59.9466667 359.04,63.04 C359.04,66.1866667 359.56,69 360.6,71.48 C361.64,73.96 363.08,76.0533333 364.92,77.76 C366.76,79.4666667 368.933333,80.7866667 371.44,81.72 C373.946667,82.6533333 376.693333,83.12 379.68,83.12 Z M388.32,58.96 L368.64,58.96 C368.853333,56.24 369.96,54.0133333 371.96,52.28 C373.96,50.5466667 376.4,49.68 379.28,49.68 C380.826667,49.68 382.173333,49.9333333 383.32,50.44 C384.466667,50.9466667 385.413333,51.6266667 386.16,52.48 C386.906667,53.3333333 387.453333,54.32 387.8,55.44 C388.146667,56.56 388.32,57.7333333 388.32,58.96 L388.32,58.96 Z M411.28,94.48 C412.613333,94.48 413.893333,94.2666667 415.12,93.84 C416.346667,93.4133333 417.44,92.76 418.4,91.88 C419.36,91 420.12,89.9066667 420.68,88.6 C421.24,87.2933333 421.52,85.7333333 421.52,83.92 L421.52,83.92 L421.52,68.64 C421.52,67.36 421.706667,66.32 422.08,65.52 C422.453333,64.72 422.906667,64.0933333 423.44,63.64 C423.973333,63.1866667 424.56,62.88 425.2,62.72 C425.84,62.56 426.453333,62.48 427.04,62.48 L427.04,62.48 L427.04,55.44 C426.453333,55.44 425.84,55.36 425.2,55.2 C424.56,55.04 423.973333,54.76 423.44,54.36 C422.906667,53.96 422.453333,53.3866667 422.08,52.64 C421.706667,51.8933333 421.52,50.96 421.52,49.84 L421.52,49.84 L421.52,34 C421.52,32.1866667 421.24,30.6266667 420.68,29.32 C420.12,28.0133333 419.36,26.92 418.4,26.04 C417.44,25.16 416.346667,24.5066667 415.12,24.08 C413.893333,23.6533333 412.613333,23.44 411.28,23.44 L411.28,23.44 L405.44,23.44 L405.44,30.16 L409.84,30.16 C411.386667,30.16 412.36,30.6666667 412.76,31.68 C413.16,32.6933333 413.36,33.7866667 413.36,34.96 L413.36,34.96 L413.36,50 C413.36,51.5466667 413.653333,52.8666667 414.24,53.96 C414.826667,55.0533333 415.52,55.9466667 416.32,56.64 C417.12,57.3333333 417.973333,57.8666667 418.88,58.24 C419.786667,58.6133333 420.56,58.8266667 421.2,58.88 L421.2,58.88 L421.2,59.04 C420.56,59.0933333 419.786667,59.2666667 418.88,59.56 C417.973333,59.8533333 417.12,60.3466667 416.32,61.04 C415.52,61.7333333 414.826667,62.6666667 414.24,63.84 C413.653333,65.0133333 413.36,66.5333333 413.36,68.4 L413.36,68.4 L413.36,82.96 C413.36,84.1333333 413.16,85.2266667 412.76,86.24 C412.36,87.2533333 411.386667,87.76 409.84,87.76 L409.84,87.76 L405.44,87.76 L405.44,94.48 L411.28,94.48 Z" id="{license}" fill="#272727" fill-rule="nonzero"></path>
                <g id="Group" transform="translate(30.200000, 0.000000)">
                    <circle id="Oval" fill="#34E555" cx="54.5" cy="54.5" r="54.5"></circle>
                    <polygon id="Path-2" fill="#FFFFFF" fill-rule="nonzero" points="47.7001842 60.2621562 30.8702374 43.9602809 21.1297626 54.0162816 46.6279408 78.7144063 89.938673 45.5582642 81.4285145 34.4417358"></polygon>
                </g>
            </g>
        </g>
    </g>
</svg>